<svg width="44" height="95" viewBox="0 0 44 95" fill="none" xmlns="http://www.w3.org/2000/svg">
<mask id="mask0" mask-type="alpha" maskUnits="userSpaceOnUse" x="0" y="0" width="44" height="93">
<path opacity="0.92" d="M0.199951 18.3583C0.199951 16.7558 0.946665 15.2447 2.21966 14.2713L18.9412 1.48418C20.786 0.0734504 23.3472 0.0734494 25.192 1.48418L41.9136 14.2713C43.1866 15.2447 43.9333 16.7558 43.9333 18.3583V75.0144C43.9333 76.6169 43.1866 78.1279 41.9136 79.1014L25.192 91.8885C23.3472 93.2992 20.786 93.2992 18.9412 91.8885L2.21966 79.1014C0.946666 78.1279 0.199951 76.6169 0.199951 75.0144V18.3583Z" fill="#261C00"/>
</mask>
<g mask="url(#mask0)">
<g filter="url(#filter0_ii)">
<path d="M0.199951 18.3583C0.199951 16.7558 0.946665 15.2447 2.21966 14.2713L18.9412 1.48418C20.786 0.0734504 23.3472 0.0734494 25.192 1.48418L41.9136 14.2713C43.1866 15.2447 43.9333 16.7558 43.9333 18.3583V75.0144C43.9333 76.6169 43.1866 78.1279 41.9136 79.1014L25.192 91.8885C23.3472 93.2992 20.786 93.2992 18.9412 91.8885L2.21966 79.1014C0.946666 78.1279 0.199951 76.6169 0.199951 75.0144V18.3583Z" fill="url(#paint0_radial)"/>
</g>
<g filter="url(#filter1_iif)">
<path d="M43.9333 76.2856V17.087C43.9333 16.2858 43.5599 15.5302 42.9234 15.0435L22.0666 -0.905823V94.2785L42.9234 78.3292C43.5599 77.8424 43.9333 77.0869 43.9333 76.2856Z" fill="url(#paint1_radial)" fill-opacity="0.4"/>
</g>
<g filter="url(#filter2_iif)">
<path d="M18.9412 1.48418L0.199951 15.8157L18.9412 30.1473C20.786 31.558 23.3472 31.558 25.192 30.1473L43.9333 15.8157L25.192 1.48418C23.3472 0.0734494 20.786 0.0734504 18.9412 1.48418Z" fill="url(#paint2_radial)" fill-opacity="0.8"/>
</g>
</g>
<defs>
<filter id="filter0_ii" x="-1.08632" y="0.426147" width="45.0196" height="93.8067" filterUnits="userSpaceOnUse" color-interpolation-filters="sRGB">
<feFlood flood-opacity="0" result="BackgroundImageFix"/>
<feBlend mode="normal" in="SourceGraphic" in2="BackgroundImageFix" result="shape"/>
<feColorMatrix in="SourceAlpha" type="matrix" values="0 0 0 0 0 0 0 0 0 0 0 0 0 0 0 0 0 0 127 0" result="hardAlpha"/>
<feOffset/>
<feGaussianBlur stdDeviation="12.8627"/>
<feComposite in2="hardAlpha" operator="arithmetic" k2="-1" k3="1"/>
<feColorMatrix type="matrix" values="0 0 0 0 1 0 0 0 0 0.69 0 0 0 0 0.225 0 0 0 0.4 0"/>
<feBlend mode="normal" in2="shape" result="effect1_innerShadow"/>
<feColorMatrix in="SourceAlpha" type="matrix" values="0 0 0 0 0 0 0 0 0 0 0 0 0 0 0 0 0 0 127 0" result="hardAlpha"/>
<feOffset dx="-1.28627" dy="1.28627"/>
<feGaussianBlur stdDeviation="0.643137"/>
<feComposite in2="hardAlpha" operator="arithmetic" k2="-1" k3="1"/>
<feColorMatrix type="matrix" values="0 0 0 0 1 0 0 0 0 1 0 0 0 0 1 0 0 0 0.5 0"/>
<feBlend mode="normal" in2="effect1_innerShadow" result="effect2_innerShadow"/>
</filter>
<filter id="filter1_iif" x="19.494" y="-3.47837" width="27.0118" height="100.329" filterUnits="userSpaceOnUse" color-interpolation-filters="sRGB">
<feFlood flood-opacity="0" result="BackgroundImageFix"/>
<feBlend mode="normal" in="SourceGraphic" in2="BackgroundImageFix" result="shape"/>
<feColorMatrix in="SourceAlpha" type="matrix" values="0 0 0 0 0 0 0 0 0 0 0 0 0 0 0 0 0 0 127 0" result="hardAlpha"/>
<feOffset/>
<feGaussianBlur stdDeviation="12.8627"/>
<feComposite in2="hardAlpha" operator="arithmetic" k2="-1" k3="1"/>
<feColorMatrix type="matrix" values="0 0 0 0 1 0 0 0 0 0.69 0 0 0 0 0.225 0 0 0 0.6 0"/>
<feBlend mode="normal" in2="shape" result="effect1_innerShadow"/>
<feColorMatrix in="SourceAlpha" type="matrix" values="0 0 0 0 0 0 0 0 0 0 0 0 0 0 0 0 0 0 127 0" result="hardAlpha"/>
<feOffset dx="-1.28627" dy="1.28627"/>
<feGaussianBlur stdDeviation="0.643137"/>
<feComposite in2="hardAlpha" operator="arithmetic" k2="-1" k3="1"/>
<feColorMatrix type="matrix" values="0 0 0 0 1 0 0 0 0 1 0 0 0 0 1 0 0 0 0.5 0"/>
<feBlend mode="normal" in2="effect1_innerShadow" result="effect2_innerShadow"/>
<feGaussianBlur stdDeviation="1.28627" result="effect3_foregroundBlur"/>
</filter>
<filter id="filter2_iif" x="-1.08632" y="-0.860127" width="47.5922" height="34.638" filterUnits="userSpaceOnUse" color-interpolation-filters="sRGB">
<feFlood flood-opacity="0" result="BackgroundImageFix"/>
<feBlend mode="normal" in="SourceGraphic" in2="BackgroundImageFix" result="shape"/>
<feColorMatrix in="SourceAlpha" type="matrix" values="0 0 0 0 0 0 0 0 0 0 0 0 0 0 0 0 0 0 127 0" result="hardAlpha"/>
<feOffset dx="2.57255" dy="2.57255"/>
<feGaussianBlur stdDeviation="10.2902"/>
<feComposite in2="hardAlpha" operator="arithmetic" k2="-1" k3="1"/>
<feColorMatrix type="matrix" values="0 0 0 0 1 0 0 0 0 0.72 0 0 0 0 0 0 0 0 0.2 0"/>
<feBlend mode="normal" in2="shape" result="effect1_innerShadow"/>
<feColorMatrix in="SourceAlpha" type="matrix" values="0 0 0 0 0 0 0 0 0 0 0 0 0 0 0 0 0 0 127 0" result="hardAlpha"/>
<feOffset dx="-2.57255"/>
<feGaussianBlur stdDeviation="0.643137"/>
<feComposite in2="hardAlpha" operator="arithmetic" k2="-1" k3="1"/>
<feColorMatrix type="matrix" values="0 0 0 0 1 0 0 0 0 1 0 0 0 0 1 0 0 0 0.6 0"/>
<feBlend mode="normal" in2="effect1_innerShadow" result="effect2_innerShadow"/>
<feGaussianBlur stdDeviation="0.643137" result="effect3_foregroundBlur"/>
</filter>
<radialGradient id="paint0_radial" cx="0" cy="0" r="1" gradientUnits="userSpaceOnUse" gradientTransform="translate(-6.87456 11.9569) rotate(67.5294) scale(132.932 35.7564)">
<stop stop-color="#FFDD9C"/>
<stop offset="1" stop-color="#FFD363"/>
</radialGradient>
<radialGradient id="paint1_radial" cx="0" cy="0" r="1" gradientUnits="userSpaceOnUse" gradientTransform="translate(32.3568 27.3922) rotate(90) scale(60.4549 13.8888)">
<stop stop-color="#FFB800"/>
<stop offset="1" stop-color="#FFEF99" stop-opacity="0.87"/>
</radialGradient>
<radialGradient id="paint2_radial" cx="0" cy="0" r="1" gradientUnits="userSpaceOnUse" gradientTransform="translate(39.431 23.4694) rotate(-162.739) scale(131.999 2878.14)">
<stop stop-color="#FFFAED"/>
<stop offset="1" stop-color="#FFB800"/>
</radialGradient>
</defs>
</svg>
